<?xml version="1.0" standalone="no"?>
<!DOCTYPE svg PUBLIC "-//W3C//DTD SVG 20010904//EN"
 "http://www.w3.org/TR/2001/REC-SVG-20010904/DTD/svg10.dtd">
<svg version="1.0" xmlns="http://www.w3.org/2000/svg"
 width="398.000000pt" height="169.000000pt" viewBox="0 0 398.000000 169.000000"
 preserveAspectRatio="xMidYMid meet">

<g transform="translate(0.000000,169.000000) scale(0.100000,-0.100000)"
fill="#ffffff" stroke="none">
<path d="M2460 1111 c-14 -4 -40 -16 -58 -25 -32 -17 -33 -18 -18 -41 9 -13
16 -33 16 -45 0 -18 -6 -20 -54 -20 -106 0 -188 -47 -230 -132 -33 -66 -35
-141 -5 -199 44 -88 161 -87 217 2 l19 30 12 -41 c16 -52 47 -67 105 -48 28
10 39 18 36 28 -13 38 0 203 24 312 28 125 30 146 18 165 -10 16 -52 23 -82
14z m-74 -208 c-3 -10 -8 -40 -12 -68 -11 -84 -49 -135 -101 -135 -53 0 -69
64 -31 131 31 56 158 118 144 72z"/>
<path d="M3380 1111 c-14 -4 -40 -16 -58 -25 -32 -17 -33 -18 -18 -41 9 -13
16 -33 16 -45 0 -18 -6 -20 -54 -20 -106 0 -188 -47 -230 -132 -33 -66 -35
-141 -5 -199 44 -88 161 -87 217 2 l19 30 12 -41 c16 -52 47 -67 105 -48 28
10 39 18 36 28 -13 38 0 203 24 312 28 125 30 146 18 165 -10 16 -52 23 -82
14z m-74 -208 c-3 -10 -8 -40 -12 -68 -11 -84 -49 -135 -101 -135 -53 0 -69
64 -31 131 31 56 158 118 144 72z"/>
<path d="M368 1059 l-47 -21 18 -37 c18 -35 18 -39 0 -146 -32 -190 -25 -224
56 -255 40 -16 189 -16 243 -1 132 37 163 180 50 231 -24 11 -38 20 -31 20 23
0 82 61 93 95 9 26 9 44 0 70 -21 63 -99 82 -196 49 -43 -15 -48 -15 -56 0
-13 22 -73 20 -130 -5z m230 -81 c19 -19 14 -57 -12 -83 -21 -21 -94 -50 -103
-41 -2 2 1 33 8 70 l11 66 42 0 c23 0 47 -5 54 -12z m-10 -194 c30 -21 30 -76
0 -104 -23 -21 -90 -28 -117 -11 -17 11 -8 110 11 123 22 13 82 9 106 -8z"/>
<path d="M873 985 c-37 -16 -39 -22 -18 -52 13 -18 12 -32 -5 -122 -25 -128
-26 -183 -2 -203 29 -26 59 -30 96 -13 32 15 34 19 26 47 -9 31 2 114 19 146
18 33 56 59 96 65 48 8 75 37 75 83 0 23 -7 38 -22 48 -45 32 -97 12 -134 -50
l-24 -39 0 41 c0 22 -5 45 -12 52 -16 16 -55 15 -95 -3z"/>
<path d="M1354 989 c-60 -17 -127 -71 -154 -124 -50 -99 -28 -220 48 -259 102
-51 272 -5 272 74 0 34 -23 60 -54 60 -16 0 -25 -9 -34 -34 -26 -71 -111 -68
-126 5 -3 18 -4 34 -2 36 2 2 34 8 70 14 77 10 135 37 165 75 23 29 28 83 10
116 -22 41 -118 60 -195 37z m85 -83 c30 -35 -35 -96 -103 -96 -24 0 -25 2
-15 28 24 64 90 102 118 68z"/>
<path d="M1793 990 c-62 -14 -122 -59 -153 -113 -76 -133 -32 -288 83 -291 50
-1 91 22 115 65 21 37 27 36 28 -2 1 -17 9 -38 18 -47 33 -34 148 -8 125 28
-14 23 -10 87 11 184 33 150 25 174 -54 163 -34 -5 -45 -3 -50 8 -6 16 -66 19
-123 5z m97 -150 c-22 -98 -57 -144 -107 -138 -19 2 -32 12 -42 32 -28 60 33
163 114 191 38 13 40 12 44 -8 1 -12 -2 -47 -9 -77z"/>
<path d="M2764 989 c-60 -17 -127 -71 -154 -124 -50 -99 -28 -220 48 -259 102
-51 272 -5 272 74 0 34 -23 60 -54 60 -16 0 -25 -9 -34 -34 -26 -71 -111 -68
-126 5 -3 18 -4 34 -2 36 2 2 34 8 70 14 77 10 135 37 165 75 23 29 28 83 10
116 -22 41 -118 60 -195 37z m85 -83 c30 -35 -35 -96 -103 -96 -24 0 -25 2
-15 28 24 64 90 102 118 68z"/>
</g>
</svg>
